<?xml version="1.0" encoding="UTF-8"?>
<svg id="Layer_1" data-name="Layer 1" xmlns="http://www.w3.org/2000/svg" viewBox="0 0 662.58 662.58">
  <defs>
    <style>
      .cls-1 {
        fill: #00d0ec;
      }

      .cls-2 {
        fill: #ff6409;
      }

      .cls-3 {
        fill: #a97dff;
      }

      .cls-4 {
        fill: #21d585;
      }

      .cls-5 {
        fill: #222;
      }
    </style>
  </defs>
  <g>
    <rect class="cls-4" x="452.61" y="115.68" width="81.29" height="14.12" transform="translate(209.21 544.27) rotate(-70)"/>
    <rect class="cls-4" x="88.2" y="220.36" width="81.29" height="14.12" transform="translate(-128.93 270.71) rotate(-70)"/>
  </g>
  <g>
    <rect class="cls-2" x="169.18" y="115.68" width="81.29" height="14.12" transform="translate(22.72 277.93) rotate(-70)"/>
    <rect class="cls-2" x="412.12" y="325.03" width="81.29" height="14.12" transform="translate(-14.16 643.97) rotate(-70)"/>
  </g>
  <g>
    <rect class="cls-1" x="250.16" y="325.03" width="81.29" height="14.12" transform="translate(-120.73 491.78) rotate(-70)"/>
    <rect class="cls-1" x="493.09" y="429.71" width="81.29" height="14.12" transform="translate(-59.24 788.94) rotate(-70)"/>
  </g>
  <g>
    <rect class="cls-3" x="331.14" y="220.36" width="81.29" height="14.12" transform="translate(30.92 499) rotate(-70)"/>
    <rect class="cls-3" x="412.12" y="534.39" width="81.29" height="14.12" transform="translate(-210.89 781.72) rotate(-70)"/>
  </g>
  <g>
    <rect class="cls-5" x="81.29" y="82.1" width="14.12" height="81.29"/>
    <rect class="cls-5" x="121.78" y="82.1" width="14.12" height="81.29"/>
    <rect class="cls-5" x="162.27" y="82.1" width="14.12" height="81.29"/>
    <rect class="cls-5" x="243.25" y="82.1" width="14.12" height="81.29"/>
    <rect class="cls-5" x="283.74" y="82.1" width="14.12" height="81.29"/>
    <rect class="cls-5" x="324.23" y="82.1" width="14.12" height="81.29"/>
    <rect class="cls-5" x="364.72" y="82.1" width="14.12" height="81.29"/>
    <rect class="cls-5" x="405.21" y="82.1" width="14.12" height="81.29"/>
    <rect class="cls-5" x="445.7" y="82.1" width="14.12" height="81.29"/>
    <rect class="cls-5" x="526.68" y="82.1" width="14.12" height="81.29"/>
    <rect class="cls-5" x="567.17" y="82.1" width="14.12" height="81.29"/>
    <rect class="cls-5" x="81.29" y="186.77" width="14.12" height="81.29"/>
    <rect class="cls-5" x="162.27" y="186.77" width="14.12" height="81.29"/>
    <rect class="cls-5" x="202.76" y="186.77" width="14.12" height="81.29"/>
    <rect class="cls-5" x="243.25" y="186.77" width="14.12" height="81.29"/>
    <rect class="cls-5" x="283.74" y="186.77" width="14.12" height="81.29"/>
    <rect class="cls-5" x="324.23" y="186.77" width="14.12" height="81.29"/>
    <rect class="cls-5" x="405.21" y="186.77" width="14.12" height="81.29"/>
    <rect class="cls-5" x="445.7" y="186.77" width="14.12" height="81.29"/>
    <rect class="cls-5" x="486.19" y="186.77" width="14.12" height="81.29"/>
    <rect class="cls-5" x="526.68" y="186.77" width="14.12" height="81.29"/>
    <rect class="cls-5" x="567.17" y="186.77" width="14.12" height="81.29"/>
    <rect class="cls-5" x="324.23" y="291.45" width="14.12" height="81.29"/>
    <rect class="cls-5" x="364.72" y="291.45" width="14.12" height="81.29"/>
    <rect class="cls-5" x="405.21" y="291.45" width="14.12" height="81.29"/>
    <rect class="cls-5" x="486.19" y="291.45" width="14.12" height="81.29"/>
    <rect class="cls-5" x="526.68" y="291.45" width="14.12" height="81.29"/>
    <rect class="cls-5" x="567.17" y="291.45" width="14.12" height="81.29"/>
    <rect class="cls-5" x="567.17" y="396.13" width="14.12" height="81.29"/>
    <rect class="cls-5" x="486.19" y="500.8" width="14.12" height="81.29"/>
    <rect class="cls-5" x="526.68" y="500.8" width="14.12" height="81.29"/>
    <rect class="cls-5" x="567.17" y="500.8" width="14.12" height="81.29"/>
  </g>
  <g>
    <polygon class="cls-5" points="132.62 304.54 114.02 304.54 114.02 372.74 99.89 372.74 99.89 304.54 81.29 304.54 81.29 291.45 132.62 291.45 132.62 304.54"/>
    <polygon class="cls-5" points="194.56 291.45 194.56 372.74 180.44 372.74 180.44 339.56 157.48 339.56 157.48 372.74 143.35 372.74 143.35 291.45 157.48 291.45 157.48 326.47 180.44 326.47 180.44 291.45 194.56 291.45"/>
    <polygon class="cls-5" points="221.36 304.54 221.36 326.47 243.06 326.47 243.06 339.56 221.36 339.56 221.36 359.65 247.88 359.65 247.88 372.74 207.23 372.74 207.23 291.45 247.88 291.45 247.88 304.54 221.36 304.54"/>
    <path class="cls-5" d="m118.15,477.42l-10.56-31.35h-12.17v31.35h-14.12v-81.29h25.72c14.12,0,23.42,8.61,23.42,21.24v7.46c0,7.69-3.44,13.89-9.3,17.57l11.83,35.02h-14.81Zm-22.73-44.43h12.4c5.63,0,8.61-2.76,8.61-7.69v-8.38c0-4.94-2.99-7.69-8.5-7.69h-12.52v23.77Z"/>
    <polygon class="cls-5" points="158.9 409.22 158.9 431.15 180.6 431.15 180.6 444.24 158.9 444.24 158.9 464.33 185.43 464.33 185.43 477.42 144.78 477.42 144.78 396.13 185.43 396.13 185.43 409.22 158.9 409.22"/>
    <path class="cls-5" d="m232.32,459.97h-19.29l-4.48,17.45h-13.78l19.17-81.29h17.8l19.06,81.29h-14.01l-4.48-17.45Zm-9.53-46.85l-6.77,33.76h13.43l-6.66-33.76Z"/>
    <path class="cls-5" d="m311.3,418.97v35.59c0,13.66-9.87,22.85-25.26,22.85h-24.8v-81.29h24.69c15.39,0,25.37,9.19,25.37,22.85Zm-14.12-.11c0-6.09-3.44-9.65-10.22-9.65h-11.6v55.11h11.48c6.89,0,10.33-3.56,10.33-9.64v-35.82Z"/>
    <rect class="cls-5" x="301.16" y="429.71" width="81.29" height="14.12" transform="translate(-185.53 608.58) rotate(-70)"/>
    <polygon class="cls-5" points="425.82 396.13 425.82 477.42 413.54 477.42 388.28 423.45 388.28 477.42 376.11 477.42 376.11 396.13 388.28 396.13 413.54 450.21 413.54 396.13 425.82 396.13"/>
    <path class="cls-5" d="m476.04,425.06v-7.69c0-6.09-4.25-9.76-11.6-9.76s-11.83,3.67-11.83,9.76v38.81c0,6.09,4.36,9.76,11.71,9.76s11.71-3.67,11.71-9.76v-9.07h-12.06v-13.09h26.18v21.93c0,13.78-9.76,23.08-25.72,23.08s-25.95-9.3-25.95-23.08v-38.46c0-13.66,9.87-22.96,25.83-22.96s25.83,9.3,25.83,22.96v7.58h-14.12Z"/>
    <path class="cls-5" d="m117.05,551.64v8.47c0,2.34.77,10.51-10.82,10.51s-10.82-8.16-10.82-10.51v-37.32c0-2.34-.77-10.51,10.82-10.51s10.82,8.16,10.82,10.51v8.67h14.12v-8.67c0-14.33-9.49-23.6-24.94-23.6s-24.94,9.26-24.94,23.6v37.32c0,14.33,9.49,23.6,24.94,23.6s24.94-9.26,24.94-23.6v-8.47h-14.12Z"/>
    <path class="cls-5" d="m191.78,560.11c0,14.33-9.49,23.6-24.94,23.6s-24.94-9.26-24.94-23.6v-37.32c0-14.33,9.49-23.6,24.94-23.6s24.94,9.26,24.94,23.6v37.32Zm-14.12-37.32c0-2.34.77-10.51-10.82-10.51s-10.82,8.16-10.82,10.51v37.32c0,2.34-.77,10.51,10.82,10.51s10.82-8.16,10.82-10.51v-37.32Z"/>
    <path class="cls-5" d="m238.37,582.1l-10.56-31.35h-11.17v31.35h-14.12v-81.29h24.72c14.12,0,23.42,8.61,23.42,21.24v7.46c0,7.69-3.44,13.89-9.3,17.57l11.83,35.02h-14.81Zm-21.73-44.43h11.4c5.63,0,8.61-2.76,8.61-7.69v-8.38c0-4.94-2.99-7.69-8.5-7.69h-11.52v23.77Z"/>
    <polygon class="cls-5" points="310.65 500.8 310.65 582.1 298.37 582.1 273.11 528.13 273.11 582.1 260.94 582.1 260.94 500.8 273.11 500.8 298.37 554.88 298.37 500.8 310.65 500.8"/>
    <polygon class="cls-5" points="335.62 513.89 335.62 535.82 356.57 535.82 356.57 548.91 335.62 548.91 335.62 569.01 361.39 569.01 361.39 582.1 321.5 582.1 321.5 500.8 361.39 500.8 361.39 513.89 335.62 513.89"/>
    <path class="cls-5" d="m406.59,582.1l-10.56-31.35h-11.17v31.35h-14.12v-81.29h24.72c14.12,0,23.42,8.61,23.42,21.24v7.46c0,7.69-3.44,13.89-9.3,17.57l11.83,35.02h-14.81Zm-21.73-44.43h11.4c5.63,0,8.61-2.76,8.61-7.69v-8.38c0-4.94-2.99-7.69-8.5-7.69h-11.52v23.77Z"/>
  </g>
</svg>